# xmcd CD database file
#
# Track frame offsets:
#	150
#	15228
#	31802
#	47939
#	68215
#	88813
#	107747
#	126599
#	144532
#	170602
#	185457
#	215772
#	233827
#	254604
#
# Disc length: 3677 seconds
#
# Revision: 0
# Processed by: cddbd v1.5.1PL0 Copyright (c) Steve Scherf et al.
# Submitted via: CDex 1.51
#
DISCID=ce0e5b0e
DTITLE=Various Artist - Salsamania
DYEAR=2004
DGENRE=Salsa
TTITLE0=Johnny Pacheco and Pete Conde - Ponle Punto
TTITLE1=Ismeal Rivera - Arrecotin Arrecotan
TTITLE2=Javier Vazquez - Ven Para Qu Gozes
TTITLE3=Sonora Poncena - Suena El Piano
TTITLE4=Celia Cruz and Ray Barretto - El Chisme
TTITLE5=Cheo Feliciano - Anacaona
TTITLE6=Impacto Crea - Monte Adentro
TTITLE7=Joe Cuba - Que Problema
TTITLE8=Ray Rodriguez - Prisionero
TTITLE9=La Lupe - Gurjira Para Ti
TTITLE10=Hector Lavoe - Periodico De Ayer
TTITLE11=Javier Vazquez - Azucar Pa'Un Amargao
TTITLE12=Johnny Colon - Son Montuno
TTITLE13=Ray Barretto - Flor De Los Lindos Campos
EXTD=YEAR: 2004
EXTT0=
EXTT1=
EXTT2=
EXTT3=
EXTT4=
EXTT5=
EXTT6=
EXTT7=
EXTT8=
EXTT9=
EXTT10=
EXTT11=
EXTT12=
EXTT13=
PLAYORDER=
